<?xml version="1.0" encoding="UTF-8" standalone="no"?>
<!-- Created with Inkscape (http://www.inkscape.org/) -->

<svg
   xmlns:dc="http://purl.org/dc/elements/1.1/"
   xmlns:cc="http://creativecommons.org/ns#"
   xmlns:rdf="http://www.w3.org/1999/02/22-rdf-syntax-ns#"
   xmlns:svg="http://www.w3.org/2000/svg"
   xmlns="http://www.w3.org/2000/svg"
   version="1.1"
   width="1785.9"
   height="37.344"
   id="svg3245">
  <defs
     id="defs3247" />
  <metadata
     id="metadata3250">
    <rdf:RDF>
      <cc:Work
         rdf:about="">
        <dc:format>image/svg+xml</dc:format>
        <dc:type
           rdf:resource="http://purl.org/dc/dcmitype/StillImage" />
        <dc:title></dc:title>
      </cc:Work>
    </rdf:RDF>
  </metadata>
  <g
     id="layer2"
     style="display:inline">
    <path
       d="m 0.13367,16.893 0.17279,-0.305 0.0467,0.03 0.0658,0.08 0.23004,-0.171 0.64417,0.401 0.2442,0.843 -0.1347,0.922 -0.49196,0.636 -0.92955,-0.07 -0.303,-0.644 0.119,-0.894 0.33648,-0.824 0,0 z m 0,-10.6935 L 0.79284,5.0098 1.1528,3.7053 1.3778,2.3523 1.632,1.0175 1.7324,0.34313 1.8604,-0.49068 2.0479,-1.3703 2.1669,-2.1986 2.2824,-2.6374 2.4621,-2.7791 2.5788,-2.6158 2.5019,-2.1397 2.2307,-1.0133 2.0602,0.13461 1.8972,1.2808 1.7444,2.4303 1.5742,3.8515 1.4317,5.276 1.3049,6.702 1.1938,8.1291 l -0.055,1.1751 -0.06,1.1758 -0.0946,1.175 -0.0709,1.175 -0.0773,0.513 -0.11312,0.511 -0.0676,0.514 0.0131,0.52"
       id="path3049"
       style="fill:none;stroke:#000000;stroke-width:0.5;stroke-linecap:butt;stroke-linejoin:miter;stroke-miterlimit:4;stroke-opacity:1;stroke-dasharray:none" />
    <path
       d="m 15.312,-1.219 -0.265,0.2107 0.123,-0.023 -0.56,0.56391 -0.592,0.87532 -0.232,0.59227 -0.105,0.051 m -2.15,-0.19083 0.09,-0.21543 0.101,-0.20173 0.81,-1.24109 0.366,-0.45172 0.309,-0.4818 -0.107,-0.062"
       id="path6079"
       style="fill:none;stroke:#000000;stroke-width:0.5;stroke-linecap:butt;stroke-linejoin:miter;stroke-miterlimit:4;stroke-opacity:1;stroke-dasharray:none" />
    <path
       d="m 35.975,-1.9382 -0.381,2.79401 -0.646,3.49899 -0.975,6.7552 -0.482,6.82 -0.17,1.094 -0.153,1.093 m -7.218,0 0.594,-3.939 0.534,-3.946 0.623,-3.9912 0.402,-4.031 0.361,-2.977 0.427,-2.903 m 9.223,12.9642 -5.337,0.737 -5.343,0.63 -1.363,-0.05 -1.324,-0.243 m 0.535,-6.9502 2.06,-0.165 1.543,-0.29 3.84,-0.79 3.867,-0.508 0.606,0.179 -0.287,0.104"
       id="path3061"
       style="fill:none;stroke:#000000;stroke-width:0.5;stroke-linecap:butt;stroke-linejoin:miter;stroke-miterlimit:4;stroke-opacity:1;stroke-dasharray:none" />
    <path
       d="m 56.675,-5.2959 -0.678,2.0273 -0.587,2.0576 -0.545,2.07073 -0.555,2.06647 -0.982,4.1524 -0.922,4.1674 -0.98,4.151 -1.159,4.104 -0.07,0.395 -0.06,0.371 -0.06,0.339 -0.08,0.297 m -2.406,-9.223 0.221,1.39 0.315,1.392 0.507,1.312 0.801,1.151 1.195,0.867 1.397,0.276 1.391,-0.307 1.179,-0.884 0.977,-1.082 0.609,-1.317 L 56.29,13.066 55.778,11.694 54.591,10.208 53.266,8.8208 52.047,7.3603 51.178,5.655 50.67,4.2077 50.296,2.6712 l -0,-1.5207 0.61,-1.39987 1.218,-1.19633 1.545,-0.7549 1.678,-0.1813 1.618,0.5244 0.385,0.1698 0.415,0.2416 0.21,0.3125 -0.228,0.38236"
       id="path3083"
       style="fill:none;stroke:#000000;stroke-width:0.5;stroke-linecap:butt;stroke-linejoin:miter;stroke-miterlimit:4;stroke-opacity:1;stroke-dasharray:none" />
    <path
       d="m 75.789,12.482 -0.93,0.745 -0.543,1.042 -0.236,1.19 -0,1.192 0.126,0.968 0.53,0.807 0.811,0.528 0.967,0.131 1.4,-0.37 1.14,-0.876 0.841,-1.204 0.502,-1.358 0.08,-0.91 -0.224,-0.889 -0.524,-0.724 -0.818,-0.416 -0.799,-0.152 -0.848,-0.176 -0.804,0.02 z m -2.541,-13.5559 -1.067,-0.1135 -0.93,-0.1526 -0.913,0.025 -1.014,0.4207 -0.969,0.69066 -0.739,0.93673 -0.413,1.10361 0.02,1.1912 0.188,0.9411 0.467,0.8227 0.704,0.6205 0.901,0.3344 1.847,-0.049 1.676,-0.8301 1.191,-1.4148 0.39,-1.8032 L 74.369,0.90174 74.162,0.09938 73.8,-0.57869 73.119,-0.95374 m -6.018,20.38674 1.044,-1.89 1.088,-1.865 1.104,-1.855 1.091,-1.862 1.295,-1.865 1.376,-1.8089 1.373,-1.8091 1.29,-1.8671 0.984,-1.6808 1.035,-1.6506 1.1,-1.60666 1.181,-1.54894 0.165,-0.3141 0.224,-0.3258 0.115,-0.3261 -0.162,-0.3152"
       id="path3089"
       style="fill:none;stroke:#000000;stroke-width:0.5;stroke-linecap:butt;stroke-linejoin:miter;stroke-miterlimit:4;stroke-opacity:1;stroke-dasharray:none" />
    <path
       d="m 108.81,19.299 -0.36,-0.07 0.23,0.08 -1.25,-0.872 -1.08,-1.116 -1.46,-1.766 -1.42,-1.793 -1.1,-1.256 -1.16,-1.189 -1.378,-1.9325 -0.748,-2.2369 -0.302,-2.3725 0.119,-2.379 0.455,-1.2438 0.714,-1.11825 1.24,-0.88626 1.45,-0.45889 1.49,0.45977 1.1,1.04649 0.51,1.41334 -0.24,1.488 -0.81,1.2113 -0.96,1.1191 -1.58,1.4289 -1.58,1.4178 -1.709,1.3919 -1.502,1.6025 -0.938,1.292 -0.865,1.343 -0.942,2.203 -0.511,2.311 0.708,1.226 1.463,0.203 2.071,-0.418 1.985,-0.779 1.38,-0.711 1.38,-0.701 1.3,-1.086 1.24,-1.161 1.4,-1.363 1.34,-1.426 0.32,-0.421 0.4,0.04"
       id="path3107"
       style="fill:none;stroke:#000000;stroke-width:0.5;stroke-linecap:butt;stroke-linejoin:miter;stroke-miterlimit:4;stroke-opacity:1;stroke-dasharray:none" />
    <path
       d="m 115.49,1.7884 0.64,-1.41383 0.76,-1.40807 0.39,-0.7979 0.1,-0.3902"
       id="path3111"
       style="fill:none;stroke:#000000;stroke-width:0.5;stroke-linecap:butt;stroke-linejoin:miter;stroke-miterlimit:4;stroke-opacity:1;stroke-dasharray:none" />
    <path
       d="m 129.79,19.7 -1.43,-2.502 -1.21,-2.612 -0.67,-1.426 -0.43,-1.512 -0,-2.1933 0,-2.1861 0.4,-1.761 0.5,-1.7355 0.75,-1.483 0.84,-1.4326 1.2,-1.25352 1.31,-1.13228 0.77,-0.3557 -0.46,0.3318"
       id="path3119"
       style="fill:none;stroke:#000000;stroke-width:0.5;stroke-linecap:butt;stroke-linejoin:miter;stroke-miterlimit:4;stroke-opacity:1;stroke-dasharray:none" />
    <path
       d="m 137.94,19.7 0.3,-0.596 0.39,-0.71 0.44,-0.789 0.44,-0.788 1.54,-4.015 0.52,-4.2797 0,-2.7454 -0.16,-2.7092 -0.64,-2.25651 -1.36,-1.92769 -0.16,-0.2071 -0.24,0.038"
       id="path3123"
       style="fill:none;stroke:#000000;stroke-width:0.5;stroke-linecap:butt;stroke-linejoin:miter;stroke-miterlimit:4;stroke-opacity:1;stroke-dasharray:none" />
    <path
       d="m 145.83,8.4718 2.16,0.1639 3.53,0.103 2.33,5e-4 1.92,-9e-4 0.22,9e-4 m -5.21,-4.8121 0,2.807 -0.12,2.096 -0.15,1.7419 -0.14,1.609 0,1.636 -0.14,0.536 m 4.46,-0.887 -0.79,-1.338 -1.26,-1.733 -1.34,-1.534 -1.53,-1.491 -1.61,-1.844 -0.97,-1.3487 -0.17,0.017 m -0.13,8.5545 1.63,-1.622 1.38,-1.262 1.57,-1.57 1.9,-1.7236 1.36,-1.7912 -0.35,0.3499"
       id="path3135"
       style="fill:none;stroke:#000000;stroke-width:0.5;stroke-linecap:butt;stroke-linejoin:miter;stroke-miterlimit:4;stroke-opacity:1;stroke-dasharray:none" />
    <path
       d="m 164.41,8.4718 1.42,0.1457 2.19,0.2553 7.89,0 0,0.2674 m -4.68,-8.0201 -0.53,2.1057 -0.16,0.6028 -0.13,2.7557 -0.13,2.5231 -0.15,2.3396 -0.26,2.207 -0.51,1.902 -0.4,1.314 -0.27,0.959"
       id="path3147"
       style="fill:none;stroke:#000000;stroke-width:0.5;stroke-linecap:butt;stroke-linejoin:miter;stroke-miterlimit:4;stroke-opacity:1;stroke-dasharray:none" />
    <path
       d="m 180.79,17.145 -0.65,-0.271 -0.36,-0.587 0.1,-0.275 0.22,-0.198 0.27,-0.127 0.27,-0.124 0.25,0.03 0.13,0.238 0,0.328 -0,0.33 -0,0.391 -0.19,0.326 -0.1,0.291 -0.1,0.296 -0.14,0.3 -0.16,0.29 -0.18,0.349 -0.16,0.357 -0.1,0.1 0.1,-0.02"
       id="path3161"
       style="fill:none;stroke:#000000;stroke-width:0.5;stroke-linecap:butt;stroke-linejoin:miter;stroke-miterlimit:4;stroke-opacity:1;stroke-dasharray:none" />
    <path
       d="m 183.93,8.3382 1.26,-0.2532 1.47,-0.1557 2.08,0.01 1.33,-0.2592 1.34,-0.1415 1.6,0 0,0.1294"
       id="path3163"
       style="fill:none;stroke:#000000;stroke-width:0.5;stroke-linecap:butt;stroke-linejoin:miter;stroke-miterlimit:4;stroke-opacity:1;stroke-dasharray:none" />
    <path
       d="m 196.22,17.027 0.58,-0.404 0.69,-0.125 0.56,0.508 -0,0.75 -0.32,0.513 -0.6,0.174 -0.6,-0.188 -0.36,-0.638 0.11,-0.626 0.43,-0.55 0.59,-0.235 0.3,0.462 0,0.05 0,0.05"
       id="path3165"
       style="fill:none;stroke:#000000;stroke-width:0.5;stroke-linecap:butt;stroke-linejoin:miter;stroke-miterlimit:4;stroke-opacity:1;stroke-dasharray:none" />
    <path
       d="m 203.71,19.7 2.25,-5.247 2.13,-5.2819 2.71,-7.1318 2.13,-4.3945"
       id="path3167"
       style="fill:none;stroke:#000000;stroke-width:0.5;stroke-linecap:butt;stroke-linejoin:miter;stroke-miterlimit:4;stroke-opacity:1;stroke-dasharray:none" />
    <path
       d="m 225.1,-1.0186 -1.2,0.71992 -1.09,0.86296 -0.99,0.97252 -0.91,1.0487 -1.09,2.47 -0.72,2.5981 -0.45,2.6714 -0.25,2.688 0.12,1.602 0.42,1.564 0.73,1.435 1.04,1.217 1.14,0.575 1.2,0.457 1.24,0.332 1.26,0.197 1.63,-0.278 1.39,-0.821 1.13,-1.198 0.84,-1.411 0.82,-1.798 0.58,-1.895 0.38,-1.95 0.25,-1.9621 0,-1.5034 -0.1,-1.5016 -0.19,-1.4897 -0.32,-1.4671 -0.35,-0.8242 -0.3,-0.864 -0.42,-0.77329 -0.71,-0.55176 -1.19,-0.56942 -1.27,-0.43705 -1.3,-0.21548 -1.32,0.095 -0.21,0.0904 -0.21,0.1023 -0.21,0.10726 -0.21,0.10533"
       id="path3171"
       style="fill:none;stroke:#000000;stroke-width:0.5;stroke-linecap:butt;stroke-linejoin:miter;stroke-miterlimit:4;stroke-opacity:1;stroke-dasharray:none" />
    <path
       d="m 235.25,19.433 1.38,-0.396 1.45,-0.03 1.44,-0.07 1.37,-0.507 0.25,-0.07 0.33,-0.125 0.31,-0.08 0.16,0.07 m -4.28,-15.6396 1.11,-1.1324 1.14,-1.26266 1.09,-1.17357 0.96,-0.86537 -0.68,2.8729 -0.58,2.8939 -0.52,2.908 -0.47,2.915 -0.5,2.4398 -0.34,2.474 -0.32,2.471 -0.49,2.435"
       id="path3175"
       style="fill:none;stroke:#000000;stroke-width:0.5;stroke-linecap:butt;stroke-linejoin:miter;stroke-miterlimit:4;stroke-opacity:1;stroke-dasharray:none" />
    <path
       d="m 252.5,1.3874 0.4,-0.52187 0.53,-0.81476 1.28,-1.0467 1.77,-0.43727 2.07,-0.1313 1.9,0.67959 0.44,1.67424 -0.65,1.83747 -0.98,1.8331 -0.99,1.8314 -1.14,2.0381 -1.33,1.9136 -0.91,1.703 -0.89,1.709 -0.93,1.935 -0.99,1.9 -0.64,1.268 -0.61,1.145 1.56,-1.087 1.82,-0.535 2.04,-0.03 1.93,0.519 2,0.486 2.09,0.04 0.31,-0.07 0.34,-0.06"
       id="path3177"
       style="fill:none;stroke:#000000;stroke-width:0.5;stroke-linecap:butt;stroke-linejoin:miter;stroke-miterlimit:4;stroke-opacity:1;stroke-dasharray:none" />
    <path
       d="m 277.36,2.1894 0.59,-1.0545 0.87,-0.85045 0.99,-0.79139 1.12,-0.58986 1.24,-0.3385 1.27,-0.08 1.77,0.3189 1.7,0.59907 0.67,0.33979 0.55,0.49148 0.43,0.6075 0.23,0.72076 0.1,0.7488 -0.15,0.7269 -0.44,1.2644 -0.61,1.1912 -0.73,1.084 -0.88,0.9588 -0.75,0.6912 -0.85,0.5535 -1.24,0.6926 -1.28,0.5865 -0.79,0.217 -0.81,0.04 -0.14,0.04 0.54,0.09 1.42,0.269 1.36,0.461 0.96,0.854 0.53,1.151 0.28,1.088 0.1,1.11 -0,1.016 -0.23,0.976 -0.46,0.983 -0.64,0.883 -0.95,0.76 -1.08,0.594 -0.81,0.331 -0.85,0.12 -1.31,-0.09 -1.27,-0.305 -1.46,-0.734 -1.41,-0.842 -0.94,-0.907 -0.91,-0.923 -0.31,-0.693 -0.13,-0.745 0,-0.602 0.38,-0.452"
       id="path3185"
       style="fill:none;stroke:#000000;stroke-width:0.5;stroke-linecap:butt;stroke-linejoin:miter;stroke-miterlimit:4;stroke-opacity:1;stroke-dasharray:none" />
    <path
       d="m 311.58,-1.6869 -1.41,3.7614 -1.8,3.5903 -0.73,2.0832 -0.58,2.1305 -0.82,3.2515 -0.87,3.237 -0.67,1.946 -0.63,1.951 -0.1,0.05 -0.1,0.05 m -2.54,-21.9212 -0.1,0.92884 -0.42,1.1894 -1.3,3.50806 -1.38,3.4742 0.46,0.1535 0.85,-0.1731 2.41,0.011 2.4,-0.2463 2.07,-0.027 2.07,0 1.25,0.272 1.29,-0"
       id="path3193"
       style="fill:none;stroke:#000000;stroke-width:0.5;stroke-linecap:butt;stroke-linejoin:miter;stroke-miterlimit:4;stroke-opacity:1;stroke-dasharray:none" />
    <path
       d="m 323.21,-1.9542 -1.34,4.812 -1.34,4.812 2.29,-1.0383 2.45,0.1142 1.83,0.5326 1.45,1.1971 0.87,1.5336 0.45,1.708 0,1.925 -0.51,1.85 -0.6,1.532 -0.72,1.474 -1.18,1.072 -1.54,0.384 -2.34,0.154 -2.32,-0.317 -1.75,-0.989 -1.5,-1.327 -0.71,-1.65 0.36,-1.472 m 3.21,-6.8169 0.76,-1.7145 0.55,-1.8246 0.57,-2.1738 0.61,-2.16571 0.16,-0.78289 0.13,-0.7337 0.28,-0.1556 0.7,-0.1675 1.6,0.1933 1.58,0.2758 2.88,0.03 2.88,0 -0.1,0.012 -0.1,-0.012"
       id="path3197"
       style="fill:none;stroke:#000000;stroke-width:0.5;stroke-linecap:butt;stroke-linejoin:miter;stroke-miterlimit:4;stroke-opacity:1;stroke-dasharray:none" />
    <path
       d="m 351.55,9.2738 0.13,0.5347 m -1.07,-11.7627 -1.44,0.9113 -1.24,1.19733 -1.62,1.50667 -1.5,1.625 -1.95,2.2134 -1.6,2.4631 -0.62,1.51 -0.64,1.5074 -0.77,2.896 0,2.97 0.48,1.428 1.15,0.947 1.89,0.987 2.12,0.05 1.61,-0.345 1.44,-0.719 2.84,-2.986 1.3,-3.877 -0.16,-2.107 -1.19,-1.6639 -1.91,-0.9326 -2.05,-0.5085 -2.68,0.1204 -2.62,0.7252 -0.85,0.4464 -0.3,0.8628"
       id="path3203"
       style="fill:none;stroke:#000000;stroke-width:0.5;stroke-linecap:butt;stroke-linejoin:miter;stroke-miterlimit:4;stroke-opacity:1;stroke-dasharray:none" />
    <path
       d="m 365.18,9.1402 2.04,-0.1327 2.05,-0.1331 0.15,0.029 0,-0.1646 m -10.83,-10.4261 1.43,-0.2862 1.5,0.019 2.28,-10e-5 2.28,10e-5 1.68,0.1497 1.7,-0.016 1.65,0 1.65,0 -0.36,0.6894 -0.45,0.67838 -1.26,2.47372 -1.4,2.398 -0.74,1.6074 -0.79,1.5918 -0.69,1.456 -0.79,1.3999 -1.07,2.137 -1.12,2.108 -0.58,1.449 -0.67,1.409 -0.63,1.501 -0.75,1.446 -0.15,0.255 -0.18,-0.01"
       id="path3209"
       style="fill:none;stroke:#000000;stroke-width:0.5;stroke-linecap:butt;stroke-linejoin:miter;stroke-miterlimit:4;stroke-opacity:1;stroke-dasharray:none" />
    <path
       d="m 389.37,7.5361 -0.67,-0.9032 -0.62,-0.954 -0.62,-1.1764 -0.45,-1.2519 -0.26,-1.2275 -0.1,-1.25243 0.48,-1.39754 0.94,-1.13303 1.03,-0.5098 1.14,-0.1818 1.82,-0.042 1.83,0 0.93,0.5304 0.84,0.647 0.69,1.23381 0.23,1.40559 -0.3,1.0124 -0.62,0.8975 -0.82,0.7717 -0.8,0.7997 -1.43,1.2627 -1.62,0.9899 -0.75,0.4383 -0.78,0.017 -0.12,0.7157 -0.5,0.5488 -1.09,1.1023 -1.01,1.1756 -0.76,1.942 -0.25,2.074 0.15,1.155 0.66,0.97 1.14,1.118 1.4,0.736 1.91,0.369 1.96,0.01 1.09,-0.43 0.88,-0.745 0.6,-0.986 0.49,-1.045 0.4,-1.297 0.15,-1.338 0,-1.092 -0.3,-1.038 -0.76,-0.959 -1.06,-0.5996 -1.76,-0.6916 -1.6,-1.0073 -0.88,-0.3005 z"
       id="path3211"
       style="fill:none;stroke:#000000;stroke-width:0.5;stroke-linecap:butt;stroke-linejoin:miter;stroke-miterlimit:4;stroke-opacity:1;stroke-dasharray:none" />
    <path
       d="m 417.58,3.3925 -1.07,3.2785 -1.16,3.241 -0.85,1.793 -1,1.717 -0.26,0.437 0.1,0.03 -0.23,0.555 -0.21,0.148 -1.72,2.514 -1.87,2.414 -0.23,0.288 -0.15,0.03 m 6.63,-20.9862 -2,-0.5455 -2.11,0.096 -1.63,0.87346 -1.33,1.2981 -0.79,1.72544 -0.26,1.878 0.73,2.2488 1.75,1.5864 1.82,0.4981 1.91,-0.086 1.49,-0.8688 1.26,-1.2017 1.21,-2.2833 -0,-2.5679 -0.99,-2.04271 L 414,-1.2085"
       id="path3221"
       style="fill:none;stroke:#000000;stroke-width:0.5;stroke-linecap:butt;stroke-linejoin:miter;stroke-miterlimit:4;stroke-opacity:1;stroke-dasharray:none" />
    <path
       d="m 427.74,13.418 -0.25,0.146 -0.17,-0.04 0,-0.1 0.31,-0.03 -0.45,0.23 -0.34,0.462 -0.11,0.559 0.25,0.522 0.54,-0.192 0.42,-0.474 0.14,-0.575 -0.31,-0.495 -0.2,0.109 -0.11,0.209 -0.1,0.248 -0.1,0.222 m 2.14,-10.1592 -0.67,-0.065 -0.53,0.3421 -0.33,0.5886 -0.1,0.6749 0.37,0.5338 0.59,0 0.52,-0.3893 0.14,-0.6464 0.1,-0.5213 -0.15,-0.4544 -0.34,-0.237 -0.53,0.1309 -0.17,0.1409 -0.12,0.1826 -0.11,0.1977 -0.12,0.1863"
       id="path3225"
       style="fill:none;stroke:#000000;stroke-width:0.5;stroke-linecap:butt;stroke-linejoin:miter;stroke-miterlimit:4;stroke-opacity:1;stroke-dasharray:none" />
    <path
       d="m 441.1,13.551 0.1,-0.314 -0.21,-0.178 -0.15,0.02 0.24,0.276 -0.13,0.157 -0.3,-0.08 -0.32,-0.02 -0.17,0.31 -0.1,0.563 0.35,0.167 0.42,-0.191 0.13,-0.513 0.16,0.07 -0.11,0.457 -0.2,0.578 -0.11,0.435 -0.25,0.547 -0.41,0.39 -0.48,0.323 -0.44,0.345 m 3.07,-12.4312 -0.65,-0.067 -0.52,0.4229 -0.15,0.5895 0.45,0.4332 0.51,-0.2837 0.35,-0.5478 -0,-0.5183 -0.56,-0.1954 -0.24,0.018 -0.17,0.1219 -0.1,0.1939 0,0.234"
       id="path3229"
       style="fill:none;stroke:#000000;stroke-width:0.5;stroke-linecap:butt;stroke-linejoin:miter;stroke-miterlimit:4;stroke-opacity:1;stroke-dasharray:none" />
    <path
       d="m 462.76,0.7191 0.36,-0.0977 -0.25,0.1129 0.28,-0.2652 -0,0.16341 -2,1.13664 -1.82,1.4495 -0.74,0.5754 -0.7,0.6104 -1.37,1.3912 -1.48,1.2844 -0.83,0.6781 -0.65,0.8474 2.27,1.8665 2.35,1.772 2.42,1.775 2.51,1.633 0.92,0.673 0.61,0.956 0.12,0.286 0.17,0.262"
       id="path3233"
       style="fill:none;stroke:#000000;stroke-width:0.5;stroke-linecap:butt;stroke-linejoin:miter;stroke-miterlimit:4;stroke-opacity:1;stroke-dasharray:none" />
    <path
       d="m 473.32,12.215 2.95,-0.232 2.78,-0.18 2.23,-0.123 7.27,-0 -0.4,0.14 m -14.03,-8.0205 3.06,-0.1403 2.6,-0.1476 8.16,0.017 -0.86,0.1375"
       id="path3237"
       style="fill:none;stroke:#000000;stroke-width:0.5;stroke-linecap:butt;stroke-linejoin:miter;stroke-miterlimit:4;stroke-opacity:1;stroke-dasharray:none" />
    <path
       d="m 500.32,-0.75124 1.37,1.14884 1.27,1.2743 2.19,2.2084 2.35,2.0451 0.85,1.0536 0.83,1.0752 -0.22,1.162 -0.95,0.8228 -2.17,1.7 -2.06,1.84 -1.06,1.221 -1.09,1.186 -1.76,2.025 -1.82,1.956"
       id="path3241"
       style="fill:none;stroke:#000000;stroke-width:0.5;stroke-linecap:butt;stroke-linejoin:miter;stroke-miterlimit:4;stroke-opacity:1;stroke-dasharray:none" />
    <path
       d="m 519.57,19.299 0.1,-0.222 0.13,-0.149 0.1,0 -0.12,0.253 0.3,-0.338 0.21,0.209 0,0.385 -0.31,0.192 -0.16,-0.197 0.16,0.23 0.1,0.375 -0.31,0.24 -0.58,0.02 -0.25,-0.378 0.12,-0.443 0.55,-0.183 0,0 z m -2.41,-16.3075 -0.28,-0.8091 -0.17,-0.8632 0.1,-0.84531 0.4,-0.75569 0.9,-0.8231 1.02,-0.6854 1.09,-0.5489 1.17,-0.339 0.67,-0.024 0.66,0.1297 0.64,0.2227 0.63,0.2426 0.81,0.4845 0.61,0.70915 0.4,0.85013 0.19,0.92626 0,1.26166 -0.33,1.2007 -0.6,1.101 -0.82,0.9561 -1.09,1.0207 -1.09,1.0098 -1.05,1.0525 -0.86,1.2144 -0.52,1.0033 -0.41,1.052 -0.25,1.099 0,1.129 0,0.811 0,0.804 0.34,1.582"
       id="path4019"
       style="fill:none;stroke:#000000;stroke-width:0.5;stroke-linecap:butt;stroke-linejoin:miter;stroke-miterlimit:4;stroke-opacity:1;stroke-dasharray:none" />
    <path
       d="m 545.76,4.3281 -0.61,-0.365 -0.71,-0.054 -0.74,0.1191 -0.7,0.1549 -1.23,0.5057 -1.07,0.7713 -0.87,0.9985 -0.58,1.1878 -0.28,0.6693 -0.13,0.7009 -0,0.7182 0,0.7213 0,0.796 0.39,0.642 0.65,0.401 0.79,0.07 0.77,-0.221 0.62,-0.483 0.49,-0.637 0.4,-0.683 0.56,-0.8184 0.51,-0.8456 0.45,-0.8739 0.39,-0.9029 0.12,-0.4169 0.14,-0.4637 0.11,-0.1925 0,0.397 -0,0.3405 -0.1,0.3042 -0,0.2175 0,0.081 -0.36,0.8974 -0.28,0.9262 -0.16,0.9499 -0,0.9686 -0,0.688 0.21,0.636 0.44,0.499 0.63,0.277 0.75,-0.17 0.57,-0.512 0.47,-0.669 0.44,-0.64 0.56,-0.939 0.47,-0.9883 0.35,-1.0346 0.2,-1.077 0.23,-1.3951 0.1,-1.4215 -0.2,-1.3887 -0.57,-1.2966 -0.57,-0.62131 -0.67,-0.52331 -0.74,-0.40206 -0.8,-0.25757 -0.8,-0.27618 -0.81,-0.17497 -0.84,-0.0921 -0.83,-0.0277 -0.88,0.20561 -0.86,0.27563 -0.83,0.34023 -0.81,0.3994 -0.48,0.28634 -0.39,0.38923 -0.36,0.4224 -0.4,0.386 -0.45,0.4907 -0.38,0.5365 -0.34,0.5664 -0.31,0.5806 -0.44,0.6958 -0.3,0.7603 -0.21,0.793 -0.19,0.7938 -0.29,1.2212 -0.11,1.2476 0,1.2583 0,1.252 0.17,0.755 0.24,0.734 0.32,0.709 0.37,0.681 0.55,0.947 0.73,0.818 0.86,0.693 0.94,0.567 0.88,0.296 0.91,0.214 0.92,0.105 0.93,-0.03 1.01,-0.09 1,-0.162 0.96,-0.3 0.87,-0.497 1.11,-0.915 0.93,-1.085 0.85,-1.166 0.85,-1.157 0.31,-0.508 0.29,-0.541 0.31,-0.512 0.37,-0.424"
       id="path4029"
       style="fill:none;stroke:#000000;stroke-width:0.5;stroke-linecap:butt;stroke-linejoin:miter;stroke-miterlimit:4;stroke-opacity:1;stroke-dasharray:none" />
    <path
       d="m 559.28,19.464 0.98,-1.944 2.99,-5.044 2.33,-3.4324 1.88,-3.3523 2.14,-3.6565 1.99,-2.7062 0.99,-0.1394 0.6,4.2906 0.86,4.2951 0.95,4.9241 0.7,4.107 0.59,3.034 -0.44,-1.991 -0.1,-0.284 -0.72,-3.239 -0.31,-3.966 -2.01,-0.9936 -7.58,-0 9.23,-0.1604"
       id="path4061"
       style="fill:none;stroke:#000000;stroke-width:0.5;stroke-linecap:butt;stroke-linejoin:miter;stroke-miterlimit:4;stroke-opacity:1;stroke-dasharray:none" />
    <path
       d="m 582.67,7.8107 -0.86,2.9623 -0.54,3.059 -0.27,1.886 -0.22,1.881 0,1.61 -0.37,1.271 0.52,-3.259 0.25,-3.294 0.4,-2.288 0.28,-2.2983 0.65,-2.7729 0.21,-4.7244 0.28,-1.7898 0.68,-1.5085 1.43,-1.0184 1.87,-0.3795 2.36,-0.254 2.42,0.4653 1.54,1.172 0.79,1.93492 0.46,2.21068 -0.58,1.9602 -0.54,1.8119 -1.16,1.0798 -4.13,0.7172 -4.22,0.3475 -1.08,-0.4131 0.36,-0.013 2.58,0.288 2.67,-0.2682 2.47,-0.1504 2.21,0.778 1.68,2.1765 0.68,2.576 -0.31,2.907 -1.05,2.539 -1.75,1.399 -2.26,0.322 -1.98,0.03 -3.04,-0.09 -2.13,-0.655 -2.28,-0.369 0.96,0.518 1.18,0.03 5.69,0.606 4.98,-1.163"
       id="path4065"
       style="fill:none;stroke:#000000;stroke-width:0.5;stroke-linecap:butt;stroke-linejoin:miter;stroke-miterlimit:4;stroke-opacity:1;stroke-dasharray:none" />
    <path
       d="m 615.77,-0.30606 -1.69,-0.33327 -1.58,-0.24906 -1.55,0.0233 -1.47,0.45709 -1.12,0.49597 -1.17,0.40143 -1.09,0.82188 -1.13,0.7423 -0.84,0.7292 -0.8,1.2547 -0.73,1.1711 -0.64,1.2234 -0.38,1.5197 -0.35,1.4958 -0.26,1.4875 0,1.514 0.14,1.415 0.32,1.401 0.65,1.437 0.93,1.251 1.01,0.709 1.12,0.537 1.14,0.414 1.2,0.09 2.09,-0 2.09,0 1.09,-0.336 1.18,-0.543 1.52,-0.738 1.3,-1.037 1.03,-1.552 0.83,-1.675"
       id="path4077"
       style="fill:none;stroke:#000000;stroke-width:0.5;stroke-linecap:butt;stroke-linejoin:miter;stroke-miterlimit:4;stroke-opacity:1;stroke-dasharray:none" />
    <path
       d="m 626.9,-1.1522 0.52,-0.8525 0.12,0.504 -0.61,-0.2012 0.81,-0.5853 -0.8,1.61898 -0.46,1.78602 -0.79,3.0646 -0.55,3.1198 -0.32,1.5377 -0.31,1.5241 -0.38,1.357 -0.41,1.347 -0.36,1.416 -0.53,1.358 -0.38,1.256 -0.22,1.3 -0.14,0.829 -0.14,-0.02 -0.87,0.162 0.22,0.105 1.18,-0.06 1.17,0.477 1.69,-0.191 1.7,-0.119 1.59,-0.288 1.53,-0.474 1.28,-0.775 1.08,-1.035 1.13,-1.208 0.89,-1.424 0.84,-1.608 0.85,-1.483 0.63,-1.5621 0.64,-1.5737 0.1,-1.4248 0,-1.4398 -0.11,-1.3217 -0.58,-1.1847 -0.68,-1.2281 -0.89,-1.09326 -1.42,-0.93621 -1.55,-0.67663 -1.89,-0.016 -1.89,0.19305 -0.84,-0.008 z"
       id="path4079"
       style="fill:none;stroke:#000000;stroke-width:0.5;stroke-linecap:butt;stroke-linejoin:miter;stroke-miterlimit:4;stroke-opacity:1;stroke-dasharray:none" />
    <path
       d="m 646.68,8.2713 -0.11,1.9347 -0.15,1.938 0,1.542 -0.25,1.453 -0.34,1.552 -0.48,1.52 0.65,1.003 1.54,-0.196 1.67,-0.122 1.68,-0.105 1.73,-0.228 1.75,-0.218 1.73,-0.109 1.73,-0.113 0.69,-0.07 0.44,0.309 m -10.43,-19.5152 -0.16,1.66367 -0.35,1.64563 -0.41,2.266 -0.5,2.2454 -0.35,1.0829 0.68,0.4788 1.75,-0.035 1.75,0.01 1.81,0.4972 1.89,0.035 1.22,0 1.23,4e-4 1.22,0.3038 1.36,-0.055 -0.65,0.043 -0.59,0.2425 m -11.77,-1.3367 0.1,-0.7574 0.2,0.1971 -0,-0.01 0.24,-1.0692 0.24,-1.8438 0.29,-1.8401 0.39,-1.5908 0.38,-1.59149 0.78,-0.97571 1.25,-0.1544 2.83,0.01 2.83,-0.019 1.52,0.3084 1.52,0.274 1.24,-6e-4 -0.15,0.2371"
       id="path4095"
       style="fill:none;stroke:#000000;stroke-width:0.5;stroke-linecap:butt;stroke-linejoin:miter;stroke-miterlimit:4;stroke-opacity:1;stroke-dasharray:none" />
    <path
       d="m 671.28,9.0065 -0.13,0.9576 -0.47,0.9119 -0.44,2.284 -0.55,2.257 -0.41,1.545 -0.38,1.553 -0.15,1.169 -0.41,1.085 m 4.27,-22.4559 -0.44,2.62341 -0.39,2.63429 -0.14,2.2444 -0.19,2.2295 -0,1.1336 0.89,0.025 1.44,-0.2035 1.46,0.01 3.79,0 3.78,0 0.29,0.1139 -0,0.4208 m -11.76,-0.5347 0.3,-1.925 0.17,-1.9312 0.26,-1.7869 0.1,-1.8018 -0.1,-1.51829 0.63,-1.17971 1.67,-0.02 1.67,0 4.16,7e-4 4.17,-0 -0.28,0.28566 -0.47,-0.0146"
       id="path4101"
       style="fill:none;stroke:#000000;stroke-width:0.5;stroke-linecap:butt;stroke-linejoin:miter;stroke-miterlimit:4;stroke-opacity:1;stroke-dasharray:none" />
    <path
       d="m 706.03,9.5412 1.41,0.6588 1.51,0.192 1.42,0.207 1.43,0.06 0.84,0.232 0.88,-0.01 m -3.75,-10.69357 -0.84,-0.47351 0.25,-0.2129 0.47,0.52468 -0.32,-0.29325 -1.72,-0.64602 -1.92,3.8e-4 -1.62,0.26007 -1.54,0.53673 -1.54,0.94705 -1.42,1.07874 -0.92,1.3252 -0.96,1.2891 -0.65,1.4698 -0.39,1.5615 -0.27,1.9778 0,2.0122 0.21,1.922 0.54,1.818 0.45,1.518 0.56,1.489 1.02,0.984 1.18,0.556 1.27,0.287 1.26,0.276 1.74,-0.07 1.49,-0.965 1.08,-1.185 0.88,-1.348 0.73,-1.435 0.49,-1.544 0.48,-1.43 0.3,-1.491 0.23,-0.9456 -0.1,0.2136 -0.2,0.374 -0.3,0.309"
       id="path4109"
       style="fill:none;stroke:#000000;stroke-width:0.5;stroke-linecap:butt;stroke-linejoin:miter;stroke-miterlimit:4;stroke-opacity:1;stroke-dasharray:none" />
    <path
       d="m 736.78,-1.4196 0.3,1.67896 -0.27,1.62954 -0.16,1.5529 -0.2,1.5316 -0.26,1.7229 -0.21,1.7379 -0.13,1.5788 -0.23,1.581 -0.17,1.541 -0.13,1.549 -0.17,1.45 0,1.492 -0.23,1.388 -0,1.453 -0.13,0.446 -0.14,0.391 m -9.63,-12.8322 2.14,-3e-4 2.14,3e-4 1.65,0.287 1.7,-0.02 1.27,-2e-4 1.26,2e-4 0.3,0.3684 -0.3,0.1662 m -9.89,-10.6934 0.3,1.43736 -0.28,1.41994 -0.1,1.3853 -0.2,1.367 0,1.5472 -0.24,1.5198 -0,3.167 0,3.17 -0.36,1.352 -0.22,1.39 -0.4,1.4 -0.1,1.429"
       id="path4121"
       style="fill:none;stroke:#000000;stroke-width:0.5;stroke-linecap:butt;stroke-linejoin:miter;stroke-miterlimit:4;stroke-opacity:1;stroke-dasharray:none" />
    <path
       d="m 749.34,19.165 2.59,-0.529 2.32,-0.34 1.76,-0.2 1.35,0 m -1.27,-19.7829 -0.4,2.7792 -0.59,3.1115 -0.39,2.8872 -0.55,2.7081 -0.28,2.5449 -0.26,2.035 -0.3,1.846 -0.18,2.186 -0.1,0.286 m -1.07,-19.8492 2.27,-0.5344 3.77,0.025 0.37,0.2399 0.81,0"
       id="path4127"
       style="fill:none;stroke:#000000;stroke-width:0.5;stroke-linecap:butt;stroke-linejoin:miter;stroke-miterlimit:4;stroke-opacity:1;stroke-dasharray:none" />
    <path
       d="m 767.79,-1.4196 4.27,0 4.28,0 0.71,0.097 0.11,1.05815 -0.27,1.51525 -0.29,1.5215 0,1.4175 -0.23,1.3914 -0.24,1.6279 -0.12,1.646 -0.35,1.6119 -0.13,1.629 -0.58,1.499 -0.52,1.519 -0.52,1.127 -0.62,1.098 -1.2,1.623 -1.81,0.78 -1.35,-0.159 -1.14,-0.761 -0.51,-1.059 -0.37,-1.112 -0.27,-1.292 0.38,-1.232 0.15,-0.394 0.32,-0.182"
       id="path4129"
       style="fill:none;stroke:#000000;stroke-width:0.5;stroke-linecap:butt;stroke-linejoin:miter;stroke-miterlimit:4;stroke-opacity:1;stroke-dasharray:none" />
    <path
       d="m 790.78,8.3382 1.28,1.0888 1.12,1.192 0.92,1.181 0.88,1.186 0.72,0.726 0.69,0.894 0.58,0.571 0.66,0.743 0.95,0.954 0.88,0.956 0.62,0.587 0.35,0.738 0.25,0.02 0.26,-0.01 m -10.7,-10.1585 1.27,-1.1538 1.29,-1.1288 1.44,-1.3606 1.66,-1.0825 1.45,-1.0411 1.54,-0.9098 1.06,-0.7581 0.98,-0.84203 1.02,-0.90429 1.04,-0.73343 -0.71,0.29089 -0.54,0.53416 m -10.16,-2.406 -0,1.4394 -0.27,1.3954 -0.26,1.6819 -0.26,1.6689 -0.1,1.5424 -0.21,1.5274 -0.24,1.4899 -0.3,1.4874 -0.36,1.7962 -0.21,1.817 -0.19,1.219 -0.28,1.168 -0.1,1.451 -0.28,1.427 -0.2,0.654 -0.26,0.675 0.3,-0 0.25,-0.249"
       id="path4135"
       style="fill:none;stroke:#000000;stroke-width:0.5;stroke-linecap:butt;stroke-linejoin:miter;stroke-miterlimit:4;stroke-opacity:1;stroke-dasharray:none" />
    <path
       d="m 815.1,-1.6869 -0.58,2.08191 -0.77,2.02789 -0.16,1.4328 -0.27,1.435 -0.26,1.5346 -0.42,1.5263 -0.28,1.4048 -0.19,1.4226 -0.21,1.237 -0.28,1.157 -0.18,1.246 -0.34,1.182 -0.43,1.354 -0.18,1.385 0.81,0.677 1.22,0.246 1.03,0.04 1.03,-0 4.37,0 4.38,0 0.25,0.03 -0.25,0.235"
       id="path4137"
       style="fill:none;stroke:#000000;stroke-width:0.5;stroke-linecap:butt;stroke-linejoin:miter;stroke-miterlimit:4;stroke-opacity:1;stroke-dasharray:none" />
    <path
       d="m 846.12,3.2638 0.66,-0.9796 0.55,-1.3641 1.05,-1.52714 1.41,-1.12066 2.22,-0.6912 2.29,-0.2315 1.23,0.4413 0.86,0.6259 0.81,1.20125 0.72,1.31442 0.24,1.68203 0.29,1.6676 -0.22,1.436 -0.52,1.3705 -0.7,2.1659 -0.75,2.1465 -0.46,1.957 -0.58,1.913 -0.47,2.189 0.25,2.019 1.73,0.78 1.73,-1.211 0.16,-0.25 0.1,-0.296 m -22.46,-18.98089 0.35,-0.86041 -0.1,0.43673 0.14,0.0112 0.68,-0.92726 1.81,-0.8162 2.02,0.1506 1.71,0.7093 1.32,1.24421 1.22,1.90069 0.62,2.2095 0.14,2.876 -0,2.8861 -0.25,1.7284 -0.4,1.718 -0.37,1.844 -0.33,1.86 -0.29,1.619 -0.23,1.271 0,-0.07 0,-0.07 0,-0.101 -0,-0.1 m -11.76,-18.17922 1.64,-0.85207 1.42,-1.15841 0.66,-0.7641 0.32,0.5799 -0.44,2.2746 -0.41,2.2753 -0.36,2.2674 -0.4,2.2603 -0.47,2.2923 -0.32,2.306 -0.54,2.056 -0.5,2.065 -0.47,1.401 -0.45,1.463 -0.23,1.179 0.12,-0.301 0.2,-0.322 0.23,-0.309"
       id="path4149"
       style="fill:none;stroke:#000000;stroke-width:0.5;stroke-linecap:butt;stroke-linejoin:miter;stroke-miterlimit:4;stroke-opacity:1;stroke-dasharray:none" />
    <path
       d="m 867.5,2.3231 1.4,-1.1819 1.05,-1.48928 0.27,-0.29268 0.36,-0.24782 0.97,-0.71082 1.08,-0.6972 1.83,-0.4374 1.88,-0.033 1.57,0.1999 1.48,0.572 1.23,1.21275 0.29,1.85805 -0.28,2.2773 -0.52,2.2393 -0.37,1.6503 -0.36,1.6456 -0.48,1.9199 -0.44,1.925 -0.52,2.084 -0.31,2.113 0.48,1.518 0.56,1.381 2.13,0.144 1.95,-0.774 0.19,-0.26 0.1,-0.308 M 865.1,0.18443 l 0.1,-0.76494 0.1,0.33085 0.12,-0.24962 0.53,-0.84702 1.14,-0.7798 0.67,0.9503 0.1,1.8749 -0.19,1.8591 -0.26,1.7634 -0.34,1.7411 -0.31,1.6848 -0.31,1.689 -0.5,1.7005 -0.32,1.744 -0.34,1.682 -0.23,1.687 -0.39,1.52 -0.31,1.501 0,1.027 0,-0.267 0,-0.166 0,-0.165"
       id="path4153"
       style="fill:none;stroke:#000000;stroke-width:0.5;stroke-linecap:butt;stroke-linejoin:miter;stroke-miterlimit:4;stroke-opacity:1;stroke-dasharray:none" />
    <path
       d="m 886.48,-2.4889 1.77,-0.01 1.7,0.2846 -0.28,0.4424 -0.83,0.7015 -1.01,1.21345 -0.86,1.31075 -0.56,1.6245 -0.19,1.7042 -0.26,1.7561 0,1.7773 -0,1.8591 0.25,1.838 0.32,1.809 0.5,1.776 0.94,1.69 1.07,1.621 2.24,1.295 2.64,-0.06 1.89,-0.241 1.8,-0.55 2.37,-1.62 1.49,-2.429 0.69,-1.767 0.41,-1.853 0.25,-1.8324 -0.15,-1.8445 -0.53,-2.0845 -0.76,-2.0065 -0.89,-1.4955 -1.25,-1.192 -0.82,-0.80712 -0.94,-0.84014 -1.11,-0.64564 -1.17,-0.5397 -3.66,-0.8116 -1.56,0.1741"
       id="path4159"
       style="fill:none;stroke:#000000;stroke-width:0.5;stroke-linecap:butt;stroke-linejoin:miter;stroke-miterlimit:4;stroke-opacity:1;stroke-dasharray:none" />
    <path
       d="m 912.41,0.18443 -0.1,-0.7624 0,0.44239 0.39,-0.41418 0.53,-0.87534 3.05,-1.3754 3.36,-0.2357 1.54,0.5549 1.41,0.8056 0.9,0.4696 0.41,0.77064 0.93,1.40494 0.4,1.73472 -0.57,1.6281 -1.16,1.3479 -1.26,1.2014 -1.36,1.0806 -1.71,0.9287 -1.8,0.7511 -1.97,0.452 -2,0.251 -1.27,-0.4528 -1.13,-0.6184 m 0,-9.89137 0.32,-0.82323 0,0.4203 0.23,-0.5655 0.81,-0.1251 -0.14,2.01683 -0.42,1.97727 -0.47,2.6573 -0.46,2.6594 -0.44,1.9625 -0.24,1.9888 -0.31,1.862 -0.43,1.835 -0.41,1.899 -0.26,1.923 -0.23,0.984 0,0.556 0.1,-0.319 -0,-0.324"
       id="path4165"
       style="fill:none;stroke:#000000;stroke-width:0.5;stroke-linecap:butt;stroke-linejoin:miter;stroke-miterlimit:4;stroke-opacity:1;stroke-dasharray:none" />
    <path
       d="m 943.24,11.646 0.41,0.168 0.91,1.109 1.1,0.861 0.8,1.139 0.92,1.123 0.95,1.088 0.94,1.168 1.22,0.871 0.87,-0.04 0.46,-0.497 0.1,-0 0.1,-0 m -11.5,-19.59421 -0.89,-0.35659 0.53,-0.085 -0.24,0.2074 -1.14,-0.5839 -2.11,0.023 -1.39,1.65841 -1.06,1.64059 -0.58,1.8573 -0.45,2.1919 -0.15,2.2238 0,2.3202 0.6,2.226 1.11,2.234 1.62,1.977 1.59,1.29 1.86,0.899 2.72,-0.02 2.49,-1.056 1.55,-1.543 1.17,-1.863 0.98,-1.814 0.53,-1.95 0.32,-2.3816 0,-2.4132 -0.76,-2.3417 -1.35,-2.0176 -2.04,-1.31137 -2.26,-1.01274 -2.12,-0.0941 -1.97,-0.6632 -2.02,-0.058 -1.21,0.91021"
       id="path4214"
       style="fill:none;stroke:#000000;stroke-width:0.5;stroke-linecap:butt;stroke-linejoin:miter;stroke-miterlimit:4;stroke-opacity:1;stroke-dasharray:none" />
    <path
       d="m 963.48,-0.61757 0.92,-0.86953 1.06,-0.6971 1.11,-0.6289 1.09,-0.6651 1.26,-0.4534 1.34,-0.2046 1.34,0.071 1.28,0.3725 1.17,0.8015 0.82,1.0418 0.43,1.24568 -0,1.41301 -0.12,0.98341 -0.22,0.9654 -0.34,0.921 -0.46,0.8503 -0.52,0.9399 -0.71,0.8816 -0.86,0.778 -0.96,0.6294 -1.24,0.7871 -1.38,0.4708 -1.44,0.3354 -1.41,0.3806 -0.87,0.082 -1.05,0.01 -0.89,-0.02 -0.4,0.01 1.23,-0 1.2,-0.2036 1.2,-0.099 1.2,0.3085 0.68,0.4785 0.54,0.572 0.48,0.654 0.52,0.728 0.34,1.444 0.29,1.473 0.28,1.483 0.36,1.471 0.12,0.548 0.2,0.463 0.24,0.371 0.25,0.271 0,0.175 0.25,0.03 0.26,0.108 0.1,0.407 1.24,0.451 1.28,0.02 1.11,-0.52 0.73,-1.178 0.44,-0.759 0.18,-0.893 0.1,-0.893 0.2,-0.76 m -15.24,-16.30723 0.24,-0.61797 0.35,-0.2849 0.13,0.094 -0.42,0.51761 0,0.0368 0.67,-0.74301 0.71,-0.608 0.17,0.4418 -0.18,1.44857 -0.37,1.42173 -0.38,1.4226 -0.23,1.4511 -0.29,1.1549 -0.15,1.113 -0.19,1.0793 -0.39,1.0537 -0.1,1.3704 -0.23,1.346 -0.29,1.334 -0.25,1.336 -0.23,1.004 -0.23,0.983 -0.22,0.987 -0.18,1.015 -0.16,0.547 -0.17,0.55 -0.1,0.559 0,0.573"
       id="path4218"
       style="fill:none;stroke:#000000;stroke-width:0.5;stroke-linecap:butt;stroke-linejoin:miter;stroke-miterlimit:4;stroke-opacity:1;stroke-dasharray:none" />
    <path
       d="m 997.16,1.5211 -0.26,-0.4398 -0,-0.398 0.13,-0.0807 0.15,0.51211 -0.1,0.023 -0.14,-0.74814 -0.21,-0.96382 -0.32,-0.62394 -0.76,-0.8479 -0.94,-0.5693 -1.04,-0.3796 -1.07,-0.2786 -1.2,-0.2279 -1.23,-0.059 -1.18,0.2524 -1.05,0.7063 -0.68,0.6642 -0.68,0.6576 -0.58,0.70598 -0.34,0.80909 -0.1,1.17903 0.17,1.1859 0.53,1.0007 0.99,0.6235 0.45,0.5081 0.78,0.3972 0.93,0.349 0.9,0.3637 0.97,0.3235 0.97,0.2739 0.95,0.2579 0.9,0.2756 0.29,0.3057 0.36,0.1991 0.27,0.1769 -0,0.2391 0.46,0.1807 0.3,0.3974 0.21,0.2903 0.23,-0.1405 0.59,1.088 0.46,1.1251 0.37,1.161 0.28,1.196 -0,0.996 0,0.999 -0.1,0.974 -0.32,0.924 -0.27,0.663 -0.44,0.641 -0.46,0.579 -0.35,0.476 -0.58,0.384 -1.03,0.326 -1.17,0.1 -1.02,-0.303 -1.02,-0.41 -1.05,-0.621 -0.93,-0.654 -0.61,-0.504 -0.33,-0.233 -0.31,-0.394 -0.27,-0.32 -0.19,-0.02 -0.37,-0.593 -0.4,-0.808 -0.3,-0.911 -0.1,-0.901 0.26,-0.883 0.52,-0.728 0.68,-0.198 0.73,0.706"
       id="path4220"
       style="fill:none;stroke:#000000;stroke-width:0.5;stroke-linecap:butt;stroke-linejoin:miter;stroke-miterlimit:4;stroke-opacity:1;stroke-dasharray:none" />
    <path
       d="m 1014.7,-2.1547 -0.4,3.4794 -0.1,5.6491 -0.2,2.8677 0,9.5915 0,-0.268 m -7.2,-20.5846 0.7,-0.2322 -0.2,0.1031 3.3,-0.4059 2.6,4e-4 3,-0.5569 3.2,-0.259 2.6,0.3407 0.3,0.2078 0.1,0"
       id="path4224"
       style="fill:none;stroke:#000000;stroke-width:0.5;stroke-linecap:butt;stroke-linejoin:miter;stroke-miterlimit:4;stroke-opacity:1;stroke-dasharray:none" />
    <path
       d="m 1032.7,-1.1522 0.6,-0.8255 0.3,0.1659 -0.6,0.4772 0.3,-0.2247 0.6,-0.3936 0.2,0.6641 -0.3,2.2678 -0.3,2.2693 -0.2,1.6348 -0.1,1.6507 0,3.9092 0,3.91 0.7,1.985 1.1,1.757 1.2,1.004 1.5,0.809 1.6,0.361 1.5,-0.567 1,-1.168 0.8,-1.342 0.8,-1.94 0.6,-2.04 0.2,-0.61 -0.1,-0.342 0.6,-1.774 0.3,-1.8207 0.2,-1.8367 0.1,-1.8356 0.2,-1.5176 0.2,-1.5257 0.3,-1.72737 0.4,-1.69923 0,-0.6233 -0.1,0.458 -0.1,1.89931 -0.4,1.84529 -0.5,2.8175 -0.3,2.8298 -0.2,1.7963 -0.1,1.812 0,1.765 0,1.765 0.5,1.6 0.3,1.623 1.2,1.545 1.9,0.499 1.8,-0.909 1.1,-1.604 0.2,-0.137 0,-0.211"
       id="path4226"
       style="fill:none;stroke:#000000;stroke-width:0.5;stroke-linecap:butt;stroke-linejoin:miter;stroke-miterlimit:4;stroke-opacity:1;stroke-dasharray:none" />
    <path
       d="m 1057.6,-1.4196 0.1,-0.8862 0,0.6209 0.4,-0.7664 1.1,-0.1416 0.5,2.3163 0.3,2.3781 0.1,2.0784 0.4,2.0665 0.6,2.6063 0.5,2.5943 0.7,2.606 0.5,2.621 0.4,1.876 0.8,1.541 1.1,-1.605 0.8,-2.089 0.8,-2.497 0.7,-2.551 0.6,-1.8879 0.6,-1.9404 1,-2.3619 0.9,-2.3439 0.6,-1.2406 0.7,-1.10199 0.6,-1.19733 0.7,-1.15838 0.5,-0.4813 0,-0.6589"
       id="path4228"
       style="fill:none;stroke:#000000;stroke-width:0.5;stroke-linecap:butt;stroke-linejoin:miter;stroke-miterlimit:4;stroke-opacity:1;stroke-dasharray:none" />
    <path
       d="m 1081.9,-1.6869 0.7,-0.696 0.1,0.3575 -0.6,0.3035 0.2,-0.4563 1.1,-0.5819 0.4,0.8722 0,8.3879 0,8.388 0.3,1.692 0.2,1.759 0.9,1.447 1.4,0.904 1.3,-0.271 1,-0.845 0.6,-1.197 0.6,-1.194 0.5,-1.695 0.4,-1.723 0.3,-1.41 0.2,-1.428 0.4,-1.6401 0.4,-1.5858 0,1.7631 0,1.7738 0,0.622 0,0.622 -0.3,2.061 0.1,2.182 0.3,1.85 1.2,1.515 1.3,0.648 1.4,0.571 1.4,-0.537 0.6,-1.588 0.4,-2.074 0.3,-2.105 0.3,-1.703 0.4,-1.678 0.8,-2.8525 0.5,-2.8927 0.4,-2.0036 0.6,-2.0028 0.3,-1.05226 0.4,-0.87606 0.3,-1.07248 0.5,-0.8017 0.6,-0.3683 0.3,0.077"
       id="path4230"
       style="fill:none;stroke:#000000;stroke-width:0.5;stroke-linecap:butt;stroke-linejoin:miter;stroke-miterlimit:4;stroke-opacity:1;stroke-dasharray:none" />
    <path
       d="m 1112.9,20.502 1.3,-0.347 1,-0.914 0.8,-1.137 0.8,-1.014 0.7,-1.027 0.5,-0.952 0.5,-0.956 0.5,-1.042 0.8,-1.396 0.9,-1.301 1,-1.2904 0.8,-1.3603 0.5,-1.4753 0.8,-1.276 1,-1.2202 0.8,-1.3081 0.9,-1.366 1.1,-1.22327 1.2,-1.13973 1.3,-1.1152 0.2,-0.2005 0.1,-0.1429 -0.1,-0.071 -0.3,0.016 m -16.3,0.5347 0.9,-0.082 0.9,0.3861 0.9,0.8666 1.2,1.35996 1.1,1.19814 0.9,1.2994 0.9,1.328 1,1.2836 1.1,2.0998 1.1,2.1127 1,2.1531 0.8,2.222 0.7,1.439 0.7,1.425 0.8,1.416 0.7,1.414"
       id="path4234"
       style="fill:none;stroke:#000000;stroke-width:0.5;stroke-linecap:butt;stroke-linejoin:miter;stroke-miterlimit:4;stroke-opacity:1;stroke-dasharray:none" />
    <path
       d="m 1137.8,-1.9542 0.1,-0.7208 0,0.3175 0.8,1.1311 0.8,1.42293 0.7,1.89027 0.6,1.9109 1,2.3842 1.2,2.3324 0.9,1.7177 0.8,1.8 0.9,-1.181 0.6,-1.4655 1.5,-2.739 1.6,-2.678 1.9,-2.1301 1.8,-2.19685 0.9,-1.26375 1,-1.2498 -1.1,1.70926 -1.1,1.71066 -1.3,1.29578 -1.2,1.3339 -1.2,1.1672 -0.9,1.4329 -1.4,3.0738 -1.6,2.9915 -1,1.562 -1,1.639 -1.7,2.964 -1.9,2.9 -0.9,1.218 -0.8,0.836 0.3,-0.389 0.5,-0.132"
       id="path4236"
       style="fill:none;stroke:#000000;stroke-width:0.5;stroke-linecap:butt;stroke-linejoin:miter;stroke-miterlimit:4;stroke-opacity:1;stroke-dasharray:none" />
    <path
       d="m 1159.7,-1.9542 3,-0.2935 3,0.026 4.2,0 4.2,0 0,1.197 -1.3,1.13162 -1.6,1.57748 -1.6,1.68 -1.2,1.5806 -1.3,1.4455 -1.5,1.768 -1.5,1.7645 -1.5,1.9139 -1.6,1.92 -1.3,1.725 -1.4,1.691 -1.1,1.477 -1.1,1.494 1.1,-0.502 1.3,-0.205 2.1,-0.449 2.2,-0.05 1.9,-0.229 2,-0.113 2.4,0.265 2.5,0.374 0.8,0.15 0.7,0.312"
       id="path4238"
       style="fill:none;stroke:#000000;stroke-width:0.5;stroke-linecap:butt;stroke-linejoin:miter;stroke-miterlimit:4;stroke-opacity:1;stroke-dasharray:none" />
    <path
       d="m 1185.2,-2.3532 -0.4,-0.24 -1.2,0.033 -1.7,0.421 -0.4,0.6732 -0.2,1.66459 -0.4,1.40371 -0.2,1.9052 -0.2,1.2107 0,2.7394 -0.2,1.0505 0,7.0309 -0.2,0.971 0,1.512 -0.1,1.054 -0.2,0.716 0.4,1.113 3.2,0"
       id="path5689"
       style="fill:none;stroke:#000000;stroke-width:0.5;stroke-linecap:butt;stroke-linejoin:miter;stroke-miterlimit:4;stroke-opacity:1;stroke-dasharray:none" />
    <path
       d="m 1188.8,-1.4081 0.6,2.4465 0.6,2.0919 0.9,2.3183 1.1,2.2052 1.1,2.7932 1.1,2.775 0.7,2.005 0.9,2.361 0.8,1.8 0.7,1.699 -0.1,0.189"
       id="path5691"
       style="fill:none;stroke:#000000;stroke-width:0.5;stroke-linecap:butt;stroke-linejoin:miter;stroke-miterlimit:4;stroke-opacity:1;stroke-dasharray:none" />
    <path
       d="m 1203.2,-2.3532 1.5,-0.014 0.7,-0.2086 0.8,0.6755 0,1.72276 -0.2,1.15713 0,1.30031 -0.1,1.3882 0,7.2619 0.1,2.41 0.2,1.885 0,2.459 0.2,1.387 0,1.792 -1.6,0.243 -1.8,-0.02"
       id="path5695"
       style="fill:none;stroke:#000000;stroke-width:0.5;stroke-linecap:butt;stroke-linejoin:miter;stroke-miterlimit:4;stroke-opacity:1;stroke-dasharray:none" />
    <path
       d="m 1213.7,3.1251 1.8,-2.2952 1.6,-1.52536 0.9,-0.89214 0.7,-0.1426 0.6,1.22511 1.2,1.66809 0.8,1.3602 0.2,0.067"
       id="path4244"
       style="fill:none;stroke:#000000;stroke-width:0.5;stroke-linecap:butt;stroke-linejoin:miter;stroke-miterlimit:4;stroke-opacity:1;stroke-dasharray:none" />
    <path
       d="m 1226.3,17.561 6.9,0.01 1.7,-0.268 2.5,-0.282 3.5,-0 -0.5,0"
       id="path4246"
       style="fill:none;stroke:#000000;stroke-width:0.5;stroke-linecap:butt;stroke-linejoin:miter;stroke-miterlimit:4;stroke-opacity:1;stroke-dasharray:none" />
    <path
       d="m 1241.1,-1.4196 0.4,0.49685 1.8,1.41203 1.4,0.83372 1.1,0.8047 1.1,0.8989 0.4,0.491"
       id="path4248"
       style="fill:none;stroke:#000000;stroke-width:0.5;stroke-linecap:butt;stroke-linejoin:miter;stroke-miterlimit:4;stroke-opacity:1;stroke-dasharray:none" />
    <path
       d="m 1255.4,9.8085 -0.8,-0.2653 -0.8,0.057 -0.8,0.2943 -0.7,0.4451 -0.7,0.617 -0.7,0.65 -0.6,0.729 -0.4,0.853 -0.4,0.608 -0.3,0.586 -0.4,0.601 -0.2,0.653 -0.3,0.9 -0.1,0.932 0,0.939 0.1,0.925 0.7,0.462 0.7,0.189 0.8,0.02 0.8,-0.05 0.9,-0.194 0.7,-0.495 0.7,-0.68 0.5,-0.751 0.4,-0.678 0.3,-0.733 0.2,-0.757 0.1,-0.755 0.2,-0.805 0.2,-0.806 0.2,-0.802 0.3,-0.796 0.1,-0.53 0,-0.544 -0.3,-0.477 -0.4,-0.3305 0.3,0.2485 0.4,0.228 0.3,0.01 0.1,-0.3982 -0.1,1.0042 -0.1,0.987 -0.3,0.983 -0.1,0.989 -0.3,0.946 -0.1,0.96 -0.1,0.966 0.1,0.963 0.9,0.888 1.1,0.664 1.1,0.449 1.2,0.241"
       id="path4252"
       style="fill:none;stroke:#000000;stroke-width:0.5;stroke-linecap:butt;stroke-linejoin:miter;stroke-miterlimit:4;stroke-opacity:1;stroke-dasharray:none" />
    <path
       d="m 1261.6,15.423 0.6,-0.777 0.6,-0.741 0.7,-0.716 0.7,-0.699 0.7,-0.694 0.7,-0.699 0.7,-0.713 0.6,-0.7379 0.7,-0.724 0.6,-0.7529 0.6,-0.7775 0.6,-0.7977 0.5,-0.8138 0.5,-0.8256 0.5,-0.8331 0.5,-0.8364 0.4,-0.4763 0.2,-0.5176 0.2,-0.5482 0.1,-0.5682 0.1,-0.57748 0.1,-0.57608 0.1,-0.56398 0.2,-0.54116 0.1,-0.8015 -0.2,-0.6077 -0.5,-0.4071 -0.6,-0.2 -0.6,0.014 -0.7,0.2343 -0.5,0.4612 -0.2,0.6949 -0.2,0.6046 -0.2,0.6032 -0.2,0.60412 -0.2,0.60728 -0.2,0.6127 -0.2,0.6204 -0.1,0.6302 0,0.6425 -0.2,1.2753 -0.2,1.2736 -0.2,1.2728 -0.2,1.2728 -0.2,1.2738 -0.1,1.2757 -0.2,1.278 -0.1,1.282 -0.2,0.785 -0.2,0.782 -0.1,0.78 -0.2,0.78 -0.2,0.781 -0.1,0.783 -0.1,0.789 -0.1,0.795 0,0.03 0,-0.174 0.1,-0.329 0.2,-0.435 0.1,-0.488 0.2,-0.49 0.1,-0.442 0.1,-0.342 0.1,-0.795 0.2,-0.802 0.2,-0.802 0.2,-0.791 0.3,-0.774 0.3,-0.749 0.4,-0.714 0.5,-0.673 0.5,-0.379 0.5,-0.314 0.6,-0.234 0.6,-0.1421 0.6,-0.036 0.6,0.083 0.5,0.2161 0.6,0.362 0.3,0.443 0.3,0.461 0.3,0.481 0.3,0.499 0.2,0.519 0.2,0.539 0.1,0.559 0.1,0.579 -0.2,1.226 -0.5,1.16 -0.6,1.057 -0.9,0.917 -1,0.739 -1.1,0.526 -1.2,0.274 -1.2,-0.01 -0.3,-0.121 -0.4,-0.315 -0.4,-0.444 -0.4,-0.503 -0.3,-0.494 -0.1,-0.419 0.1,-0.275 0.4,-0.06"
       id="path4254"
       style="fill:none;stroke:#000000;stroke-width:0.5;stroke-linecap:butt;stroke-linejoin:miter;stroke-miterlimit:4;stroke-opacity:1;stroke-dasharray:none" />
    <path
       d="m 1279,13.952 0.6,-1.178 1.5,-2.035 0.6,-0.55 1.2,-0.5869 1.7,-0.1924 1.6,0.1295 -0.3,0.128 -1.5,-0.1429 -1.4,0.1 -1.3,0.6291 -1.6,1.543 -0.8,2.015 0,2.07 0.4,2 1,1.32 1.5,0.712 1.6,0.293 1.6,0.03 1.5,-0.482 0.9,-1.257 0.1,-0.249 0.3,-0.152"
       id="path4268"
       style="fill:none;stroke:#000000;stroke-width:0.5;stroke-linecap:butt;stroke-linejoin:miter;stroke-miterlimit:4;stroke-opacity:1;stroke-dasharray:none" />
    <path
       d="m 1301.7,9.9422 -1.1,-0.2911 -1.1,0.1103 -1,0.3806 -1,0.518 -1.2,0.644 -1,0.82 -0.9,1.002 -0.6,1.19 -0.3,0.938 -0.2,0.978 -0.1,0.994 0.2,0.982 0.4,0.631 0.6,0.418 0.7,0.26 0.8,0.156 0.6,0.02 0.7,-0.146 0.5,-0.305 0.5,-0.459 1.1,-1.282 0.9,-1.446 0.7,-1.559 0.5,-1.621 0.2,-0.792 0.1,-0.816 0.1,-0.819 0.1,-0.8041 0.4,-0.6203 0.3,-0.7883 0.3,-0.8266 0.2,-0.735 0.5,-1.4796 0.3,-1.3244 0.4,-1.3323 0.4,-1.5033 0.1,-0.42136 0.1,-0.57254 0.1,-0.45591 0,-0.0716 -0.4,1.09589 -0.3,1.10088 -0.4,1.1147 -0.2,1.1373 -0.3,1.3814 -0.4,1.3761 -0.5,1.3492 -0.5,1.3007 -0.3,0.8231 -0.2,0.854 -0.1,0.862 -0.1,0.851 -0.2,1.216 0,1.233 0.3,1.196 0.5,1.103 0.5,0.69 0.7,0.498 0.9,0.227 0.8,-0.122 0.7,-0.337 0.5,-0.465 0.5,-0.541 0.5,-0.562"
       id="path4272"
       style="fill:none;stroke:#000000;stroke-width:0.5;stroke-linecap:butt;stroke-linejoin:miter;stroke-miterlimit:4;stroke-opacity:1;stroke-dasharray:none" />
    <path
       d="m 1310.6,14.086 1.3,-0.282 1.4,0.02 1.2,-0.134 1,-0.454 0.8,-0.393 0.5,-0.629 0.3,-0.965 0.1,-1.029 -0.6,-0.7941 -0.9,-0.2781 -0.7,-0.01 -0.7,0.1104 -0.8,0.1928 -0.8,0.3632 -1.2,0.8301 -1,1.102 -0.6,1.136 -0.2,1.264 0,0.912 0,0.913 0.2,1.084 0.7,0.892 1.3,0.536 1.4,0.313 0.9,0.123 1,0 0.7,-0.155 0.7,-0.375 0.8,-0.48 0.7,-0.612 0,-0.192 0.1,-0.07"
       id="path4274"
       style="fill:none;stroke:#000000;stroke-width:0.5;stroke-linecap:butt;stroke-linejoin:miter;stroke-miterlimit:4;stroke-opacity:1;stroke-dasharray:none" />
    <path
       d="m 1322.4,11.413 1,-0.658 0.9,-0.7915 0.8,-0.8486 0.9,-0.8287 1.3,-1.7875 1,-1.9841 1,-2.057 1,-2.00583 0.5,-1.26296 0.2,-1.53931 -0.4,-1.0507 -1.3,0.2029 -0.8,1.2761 -0.6,1.36715 -0.5,1.41041 -0.5,1.40584 -0.8,2.875 -0.7,2.8804 -0.6,2.8964 -0.5,2.923 -0.3,2.34 -0.4,2.334 -0.4,2.325 -0.5,2.312 -0.3,1.096 -0.4,1.132 -0.5,1.026 -0.8,0.78 -0.8,-0.411 -0.2,-1.127 0.1,-1.35 0.2,-1.078 0.8,-2.06 1,-1.922 1.2,-1.867 1.1,-1.897 1.2,-1.547 1.3,-1.448 1.3,-1.349 1.5,-1.251 0.2,-0.1501 0.1,-0.2153 0,-0.1158 -0.2,0.1484"
       id="path4276"
       style="fill:none;stroke:#000000;stroke-width:0.5;stroke-linecap:butt;stroke-linejoin:miter;stroke-miterlimit:4;stroke-opacity:1;stroke-dasharray:none" />
    <path
       d="m 1341.3,9.608 -1.4,-0.1001 -1.3,-0.018 -1.9,0.051 -1.6,0.9195 -1.5,2.12 -0.6,2.586 0,2.635 1,2.401 1.2,0.704 1.5,0.11 1,-0.659 0.9,-0.959 0.9,-1.664 0.7,-1.775 0.5,-1.895 0.4,-1.907 0.2,-1.373 0.2,-1.3705 0,0.3311 -0.3,0.7514 -0.4,1.591 -0.3,1.62 -0.4,1.41 -0.1,1.43 -0.4,2.263 -0.4,2.26 -0.7,2.393 -0.6,2.412 -0.9,2.295 -1.2,2.087 -0.8,0.658 -0.7,-0.783 0,-1.19 0.2,-1.192 0.5,-1.575 1,-1.331 1.2,-1.281 1.2,-1.21 2.3,-2.527 2.3,-2.509 0.7,-0.899 0.7,-0.862"
       id="path4286"
       style="fill:none;stroke:#000000;stroke-width:0.5;stroke-linecap:butt;stroke-linejoin:miter;stroke-miterlimit:4;stroke-opacity:1;stroke-dasharray:none" />
    <path
       d="m 1345.9,14.888 1.2,-1.266 1.3,-1.26 2.2,-2.7789 2.1,-2.7836 1,-1.4689 0.6,-1.0478 0.6,-1.1621 0.5,-1.2775 0.4,-1.41006 0.5,-1.38806 0,-1.43968 -1,-1.0056 -1.2,0.8182 -0.8,1.3761 -0.5,0.92279 -0.5,1.12947 -0.1,0.30314 0.1,-0.068 -1,2.8329 -0.8,2.8633 -0.4,1.4998 -0.3,1.4958 -0.5,1.296 -0.4,1.305 -0.4,1.44 -0.5,1.419 -0.5,2.099 -0.5,2.091 -0.3,0.92 -0.1,0.594 0.4,-1.553 0.5,-1.544 0.4,-1.703 0.6,-1.617 0.8,-1.88 1.1,-1.678 1,-0.959 1.3,-0.5513 1.3,-0.3432 1.2,0.3837 0.3,1.8358 -0.1,1.885 -0.4,3.081 -0.3,3.099 0.7,1.203 1.5,-0.596 1.2,-1.104 0.9,-1.412 0.4,-0.458 0.1,-0.263"
       id="path4288"
       style="fill:none;stroke:#000000;stroke-width:0.5;stroke-linecap:butt;stroke-linejoin:miter;stroke-miterlimit:4;stroke-opacity:1;stroke-dasharray:none" />
    <path
       d="m 1366.1,9.1402 -0.5,1.3438 -0.4,1.346 -0.3,1.09 -0.3,1.075 -0.1,1.068 -0.1,1.071 -0.1,1.045 0,1.051 0.5,1.048 0.8,0.762 1.1,0.03 0.9,-0.55 0.4,-0.52 0,-0.637 m -2.7,-15.5052 0,-0.4139 0,0.2781 0.4,-0.1479 -0.1,-0.38 0.8,0.254 0.2,0.8677 -0.5,0.6765 -0.7,-0.2251 -0.1,-0.4467 0,-0.4627 0,0 z"
       id="path4296"
       style="fill:none;stroke:#000000;stroke-width:0.5;stroke-linecap:butt;stroke-linejoin:miter;stroke-miterlimit:4;stroke-opacity:1;stroke-dasharray:none" />
    <path
       d="m 1374.2,8.8728 -0.4,2.0102 -0.1,2.066 0,3.077 -0.1,3.068 -0.1,1.596 -0.1,1.588 -0.4,2.69 -0.3,2.698 -0.5,1.396 -0.9,1.167 -1,0.615 -0.6,-0.562 0,-1.5 0.1,-1.477 0.6,-1.546 0.7,-1.519 1.1,-1.697 1.3,-1.595 1,-1.401 1.1,-1.354 1.1,-1.393 1.1,-1.476 0.1,-0.349 -0.1,-0.354 m -2.9,-12.9662 -0.6,0.3655 -0.5,0.5327 0,1.4408 1.1,-0.1108 0.3,-0.7401 0,-0.8198 -0.3,-0.5394 -0.2,0.3376 -0.3,0.2633 -0.2,0.3395"
       id="path4312"
       style="fill:none;stroke:#000000;stroke-width:0.5;stroke-linecap:butt;stroke-linejoin:miter;stroke-miterlimit:4;stroke-opacity:1;stroke-dasharray:none" />
    <path
       d="m 1381.4,12.424 0.7,-0.665 0.8,-0.631 0.7,-0.64 0.7,-0.692 0.6,-0.8258 0.6,-0.8663 0.5,-0.8906 0.5,-0.8988 0.5,-1.031 0.4,-1.0572 0.4,-1.0804 0.4,-1.101 0.3,-0.9114 0.3,-0.91285 0.2,-0.93113 0.1,-0.96622 0,-0.611 0,-0.6417 -0.3,-0.3239 -0.5,0.3421 -0.4,0.6548 -0.3,0.6847 -0.3,0.71164 -0.2,0.73589 -0.3,0.98251 -0.2,0.98486 -0.2,0.9835 -0.2,0.9785 -0.3,1.7673 -0.3,1.7696 -0.3,1.7692 -0.4,1.7657 -0.1,0.955 -0.3,0.932 -0.3,0.93 -0.2,0.949 -0.2,0.677 -0.2,0.661 -0.2,0.658 -0.2,0.668 -0.3,0.793 -0.3,0.796 -0.2,0.809 -0.2,0.828 -0.1,0.397 0,0.148 0.1,-0.11 0.1,-0.373 0.3,-0.682 0.2,-0.697 0.2,-0.71 0.2,-0.726 0.2,-0.808 0.2,-0.831 0.2,-0.827 0.3,-0.793 0.3,-0.979 0.3,-0.96 0.5,-0.889 0.7,-0.765 0.6,-0.615 0.6,-0.4875 0.7,-0.3781 0.8,-0.2887 0.7,-0.2635 0.7,0.1705 0.5,0.4961 0.3,0.7132 -0.2,0.62 -0.4,0.501 -0.5,0.405 -0.6,0.334 -0.9,0.459 -0.9,0.481 -0.9,0.525 -0.9,0.588 -0.4,0.324 -0.4,0.358 -0.5,0.322 -0.2,0.216 0.7,-0.383 0.7,-0.241 0.8,0.05 0.6,0.476 0.3,0.858 0.2,0.912 0.2,0.925 0.2,0.897 0.3,0.772 0.4,0.713 0.6,0.399 0.8,-0.172 0.7,-0.524 0.6,-0.612 0.5,-0.693 0.3,-0.77 0.1,-0.247 0,-0.34 0,-0.26 -0.3,-0"
       id="path4314"
       style="fill:none;stroke:#000000;stroke-width:0.5;stroke-linecap:butt;stroke-linejoin:miter;stroke-miterlimit:4;stroke-opacity:1;stroke-dasharray:none" />
    <path
       d="m 1397.6,12.348 1,-1.035 1.1,-1.008 1.1,-1.3789 1.1,-1.3907 0.9,-1.0953 0.9,-1.1842 0.7,-1.2321 0.7,-1.2303 0.9,-1.4109 0.7,-1.48848 0.3,-1.34062 -0.5,-1.1918 -1,-0.071 -0.6,0.9455 -0.7,1.7505 -0.3,1.8499 -0.1,0.069 -0.1,0.2097 -0.5,2.3062 -0.6,2.2861 -0.3,1.572 -0.4,1.5641 -0.3,1.5009 -0.2,1.514 -0.1,1.165 -0.1,1.161 -0.1,1.386 0,1.391 0.4,1.317 0.7,1.104 1.7,-0.13 1.5,-0.814 1.5,-1.578 1.1,-1.941 0.1,-0.255 0.1,-0.242"
       id="path4316"
       style="fill:none;stroke:#000000;stroke-width:0.5;stroke-linecap:butt;stroke-linejoin:miter;stroke-miterlimit:4;stroke-opacity:1;stroke-dasharray:none" />
    <path
       d="m 1416.2,11.814 0.8,-0.824 1,-0.732 1,-0.6213 1.1,-0.2292 1,0.2953 0.4,1.0222 0.1,1.639 -0.3,1.613 -0.5,2.399 -0.4,2.388 -0.4,1.043 -0.3,1.003 0,-0.223 0.3,-0.707 0.4,-1.28 0.3,-1.311 0.4,-1.177 0.2,-1.224 0.3,-1.199 0.5,-1.156 0.6,-1.389 0.9,-1.1508 1,-0.5168 1.1,-0.082 0.7,0.8245 0.4,1.112 0,1.375 -0.1,1.373 -0.1,0.275 0.1,-0.06 -0.3,1.567 -0.4,1.537 -0.4,1.536 -0.2,1.566 0,-0.252 0.2,-0.753 0.3,-1.206 0.3,-1.231 0.2,-1.259 0.2,-1.272 0.3,-1.223 0.3,-1.212 0.6,-0.903 0.9,-0.641 1.2,-0.5475 1.2,-0.3112 0.7,0.8047 0.4,1.04 0.1,1.363 0,1.369 -0.2,1.245 -0.1,1.252 0,1.702 0.2,1.599 1.3,0.443 1.5,-0.133 1,-0.931 0.7,-1.209"
       id="path4322"
       style="fill:none;stroke:#000000;stroke-width:0.5;stroke-linecap:butt;stroke-linejoin:miter;stroke-miterlimit:4;stroke-opacity:1;stroke-dasharray:none" />
    <path
       d="m 1441.9,13.418 0.6,-0.772 0.4,-0.569 0.6,-0.484 0.6,-0.487 0.7,-0.552 0.8,-0.43 0.7,-0.4321 0.8,0.2442 0.3,1.0669 -0.2,1.094 -0.3,0.923 -0.2,0.768 -0.3,0.948 -0.3,0.98 -0.3,1.174 -0.3,1.172 -0.3,0.882 -0.2,0.89 0,-0.1 0.2,-0.568 0.4,-1.142 0.4,-1.136 0.1,-0.779 0.2,-0.793 0.4,-1.145 0.3,-1.168 0.3,-1.167 0.5,-1.082 0.8,-0.7713 1,-0.6291 1,-0.1846 1.1,0.069 1.1,0.8296 0.3,1.286 0.1,1.187 -0.2,1.194 -0.2,0.996 -0.2,1.009 -0.2,1.245 -0.2,1.236 0,1.198 0.7,0.898 1.1,0.04 1,-0.471 0.7,-0.673 0.5,-0.837 -0.1,-0.527 -0.5,0.11"
       id="path4324"
       style="fill:none;stroke:#000000;stroke-width:0.5;stroke-linecap:butt;stroke-linejoin:miter;stroke-miterlimit:4;stroke-opacity:1;stroke-dasharray:none" />
    <path
       d="m 1462.2,12.348 0.3,-0.422 -0.2,0.347 1.9,-1.443 2.3,-0.8687 -1.7,0.4587 -1.2,1.365 -0.7,2.596 -0.2,2.691 0.1,1.565 0.6,1.392 1.5,0.719 1.6,-0.01 1.1,-0.902 0.9,-1.187 0.8,-1.985 0.2,-2.108 0,-1.305 -0.2,-1.279 -0.8,-1.208 -1.2,-0.509 -0.9,-0.165 0.3,0.134 1.9,0.729 1.9,0.46 0.8,0.01 0.2,-0.549"
       id="path4326"
       style="fill:none;stroke:#000000;stroke-width:0.5;stroke-linecap:butt;stroke-linejoin:miter;stroke-miterlimit:4;stroke-opacity:1;stroke-dasharray:none" />
    <path
       d="m 1480.2,10.343 1.2,-1.0174 1.6,-0.1943 2.6,0.2192 2.3,1.3665 0.6,1.484 0,1.623 -0.3,1.935 -1,1.716 -1.1,1.099 -1.3,0.881 -2,0.514 -2.2,10e-4 -1.3,-0.573 -1.1,-1.013 -0.1,-0.934 0.7,-0.691 m -1.1,-5.614 1.2,-0.347 1,-0.8146 0.2,-0.2631 0.2,-0.363 -0.5,1.3987 -0.3,1.452 -0.4,1.355 -0.3,1.402 -0.5,1.849 -0.5,1.843 -0.6,2.222 -0.7,2.19 -0.4,1.425 -0.4,1.415 -0.3,1.094 -0.3,1.098 -0.2,0.833 -0.3,0.791 0,-0.334 0,-0.334"
       id="path4330"
       style="fill:none;stroke:#000000;stroke-width:0.5;stroke-linecap:butt;stroke-linejoin:miter;stroke-miterlimit:4;stroke-opacity:1;stroke-dasharray:none" />
    <path
       d="m 1507.3,10.454 -1.7,-0.399 -1.5,-0.7253 -2.4,-0.045 -2.3,0.7783 -1.4,0.956 -1.1,1.324 -0.8,1.575 -0.1,1.77 0.5,1.518 0.9,1.37 1.6,1.109 1.9,0.245 1.8,-0.779 1.5,-1.337 1.2,-1.56 0.8,-1.831 0.6,-1.701 0.5,-1.678 0.1,-0.911 0,0.142 -0.8,1.741 -0.6,1.777 -0.7,2.082 -0.6,2.094 -0.5,1.745 -0.5,1.765 -0.6,1.769 -0.5,1.787 -0.4,1.821 -0.6,1.772 -0.3,1.208 -0.3,1.189 -0.4,1.099 -0.4,0.517 0.6,-2.578 0.7,-2.557 0.7,-2.4 0.7,-2.401 0.9,-1.61 1.1,-1.457 1.4,-1.053 1.6,-0.866 1.5,-0.731 1.7,-0.261 0.5,0.02 -0.3,0.373"
       id="path4336"
       style="fill:none;stroke:#000000;stroke-width:0.5;stroke-linecap:butt;stroke-linejoin:miter;stroke-miterlimit:4;stroke-opacity:1;stroke-dasharray:none" />
    <path
       d="m 1514.9,9.7922 1.4,-0.05 1.4,0.2059 1,0.2213 0.9,0.307 1,0.05 0.9,-0.156 0.7,-0.191 0.7,-0.102 0.3,-0.1256 -0.1,0.1256 -0.9,0.5 -0.7,0.71 -0.4,0.452 -0.3,0.429 -0.5,0.854 -0.6,0.826 -0.4,0.843 -0.4,0.83 -0.3,1.231 -0.3,1.22 -0.1,1.31 0,1.285 0.6,0.601 0.7,0.277 1.1,0.02 0.9,-0.414 0.6,-0.515 0.5,-0.563 0.2,-0.583 0.4,-0.201"
       id="path4338"
       style="fill:none;stroke:#000000;stroke-width:0.5;stroke-linecap:butt;stroke-linejoin:miter;stroke-miterlimit:4;stroke-opacity:1;stroke-dasharray:none" />
    <path
       d="m 1537,9.5234 0.1,-0.19 -0.6,-0.2177 -1.1,-0.2174 -0.8,0.2996 -0.4,0.3018 -0.5,0.3553 -0.7,0.719 -0.5,0.985 -0.2,1.04 0.3,0.979 0.9,0.736 1,0.579 0.9,0.448 0.8,0.546 0.4,0.904 0.1,0.986 -1,1.79 -1.8,0.869 -1.4,0.159 -1.3,-0.498 -0.9,-0.505 -0.7,-0.726 0.5,0.309 0.5,0.481 0.9,0.631 1.2,0.25 1.4,-0.07 1.2,-0.749 0.8,-0.53 0.6,-0.549"
       id="path4346"
       style="fill:none;stroke:#000000;stroke-width:0.5;stroke-linecap:butt;stroke-linejoin:miter;stroke-miterlimit:4;stroke-opacity:1;stroke-dasharray:none" />
    <path
       d="m 1549.1,-0.84095 0,0.60703 -0.4,0.4641 -0.5,0.47206 -0.1,0.63096 -0.5,1.4587 -0.2,1.5057 -0.2,1.5184 -0.3,1.4965 -0.2,0.7743 0,0.7792 -0.1,0.7803 -0.1,0.7777 -0.1,1.285 -0.1,1.287 0,1.288 0,1.288 0.1,0.505 0.1,0.506 0.1,0.499 0.2,0.485 0.3,0.516 0.3,0.47 0.4,0.433 0.5,0.403 0.8,0.268 1,0.235 0.9,0.04 0.8,-0.308 0.7,-0.547 0.7,-0.58 0.6,-0.597 0.6,-0.598 m -11.5,-9.8294 0.8,-0 0.7,0.01 0.8,0.053 0.7,0.1275 0.8,0.069 0.7,0.074 0.8,0.1007 0.7,0.149 0.5,-0 0.6,-7e-4 0.5,-0.01 0.2,-0.022 -0.2,-0.076 -0.2,-0.071 -0.2,-0.039 -0.2,0.021"
       id="path4356"
       style="fill:none;stroke:#000000;stroke-width:0.5;stroke-linecap:butt;stroke-linejoin:miter;stroke-miterlimit:4;stroke-opacity:1;stroke-dasharray:none" />
    <path
       d="m 1559.3,9.9039 0.6,-0.3212 0.5,-0.6668 0.4,0.6352 0,0.8809 -0.3,1.729 -0.4,1.72 0,1.135 -0.2,1.122 0,1.275 0,1.274 0.5,1.106 0.9,0.583 1.2,-0.152 1,-0.635 0.8,-0.663 0.5,-0.876 0.8,-1.063 0.5,-1.14 0.5,-0.776 0.4,-0.84 0.7,-1.379 0.4,-1.48 0.1,-1.194 0.1,-1.1937 -0.1,1.8507 -0.3,1.813 -0.4,1.501 0,1.533 0,1.34 0,1.331 0.4,1.042 0.7,0.806 1,0.173 1,-0.473 0.8,-0.744 0.6,-0.987 0.2,-0.606 0.1,-0.636"
       id="path4358"
       style="fill:none;stroke:#000000;stroke-width:0.5;stroke-linecap:butt;stroke-linejoin:miter;stroke-miterlimit:4;stroke-opacity:1;stroke-dasharray:none" />
    <path
       d="m 1579.9,11.068 0.3,-0.588 -0.2,0.447 0.8,-1.5647 0.3,-0.045 0.1,2.3332 0.1,2.346 0.3,1.644 0.3,1.636 0.4,1.658 0.7,1.61 0.7,0.813 0.7,-0.563 1.1,-1.522 0.8,-1.696 0.7,-1.441 0.7,-1.496 0.9,-1.753 0.8,-1.729 0.6,-1.125 0.4,-1.2322"
       id="path4360"
       style="fill:none;stroke:#000000;stroke-width:0.5;stroke-linecap:butt;stroke-linejoin:miter;stroke-miterlimit:4;stroke-opacity:1;stroke-dasharray:none" />
    <path
       d="m 1598.9,9.5559 -0.1,-0.5552 0.1,0.2841 0.2,1.2772 0.1,1.288 0.2,1.028 0.2,1.029 0.3,1.368 0.1,1.379 0.3,1.059 0.3,1.026 0.5,0.864 0.8,0.758 0.5,-0.42 0.4,-0.84 0.9,-1.412 0.7,-1.521 0.5,-0.972 0.7,-0.785 0.3,0.932 0.2,0.947 0.4,1.409 0.5,1.361 0.2,0.946 0.6,0.341 0.5,-0.852 0.5,-0.872 0.5,-1.006 0.3,-1.088 0.6,-1.146 0.7,-1.079 0.3,-0.92 0.6,-0.824 0.3,-0.852 0.6,-0.575 0.5,-0.907 0.3,-0.875 0,-0 0,-0 0,-0.2494 0.1,-0.2494"
       id="path4362"
       style="fill:none;stroke:#000000;stroke-width:0.5;stroke-linecap:butt;stroke-linejoin:miter;stroke-miterlimit:4;stroke-opacity:1;stroke-dasharray:none" />
    <path
       d="m 1629.3,15.038 -0.6,0.366 -0.4,0.693 -1.3,1.431 -1.3,1.309 -0.9,0.901 -1,0.799 -0.6,0.486 -0.3,0.469 0.2,-0.03 0.1,-0.163 1,-0.869 0.8,-0.965 0.7,-0.435 0.5,-0.681 0.7,-0.771 0.7,-0.785 0.9,-0.751 0.7,-0.914 1.3,-0.527 1,-0.869 0.9,-0.672 0.8,-0.674 0.8,-0.673 0.8,-0.696 0.8,-0.677 0.4,-0.7561 -0.2,0.1756 -0.3,0.1705 m -10,0.378 -0.2,-0.4941 0.2,0.2171 0.7,1.176 0.8,1.133 1,1.315 0.9,1.29 1.5,1.559 1.5,1.508 0.6,0.8 0.7,0.787 0.5,0.581 0.2,0.53 -0.4,-0.14 -0.4,-0.05"
       id="path4366"
       style="fill:none;stroke:#000000;stroke-width:0.5;stroke-linecap:butt;stroke-linejoin:miter;stroke-miterlimit:4;stroke-opacity:1;stroke-dasharray:none" />
    <path
       d="m 1644.6,9.745 0.4,1.754 0.5,1.987 0.3,2.289 0.7,2.207 0.7,1.22 0.6,1.198 1,0.759 0.4,-0.424 1.1,-2.264 0.9,-2.334 0.9,-1.69 0.8,-1.704 0.7,-1.488 0.7,-1.4893 -0.7,1.6153 -0.7,1.628 -0.9,1.895 -0.6,1.73 -1,1.97 -1,1.986 -0.8,1.58 -1,1.872 -0.7,1.855 -0.8,1.64 -0.6,1.64 -0.9,1.549 -0.3,0.613 -0.1,0.712"
       id="path4368"
       style="fill:none;stroke:#000000;stroke-width:0.5;stroke-linecap:butt;stroke-linejoin:miter;stroke-miterlimit:4;stroke-opacity:1;stroke-dasharray:none" />
    <path
       d="m 1662.6,9.745 1.2,-0.5939 1.5,0.046 1.8,0.1928 1.9,-0.027 1.5,0.077 -0.1,1.0619 -1.2,1.257 -1.3,1.147 -1,1.232 -1.1,1.198 -0.9,1.284 -1.1,1.292 -1.1,1.202 -1,1.131 0,0.335 1.2,-0.244 1.8,-0.493 1.9,-0.08 1.6,0.08 1.6,0.112 1.2,0.162 0.3,0.589"
       id="path4370"
       style="fill:none;stroke:#000000;stroke-width:0.5;stroke-linecap:butt;stroke-linejoin:miter;stroke-miterlimit:4;stroke-opacity:1;stroke-dasharray:none" />
    <path
       d="m 1687.5,-1.4081 -0.2,-0.5037 0.3,0.1619 -0.5,-0 -0.7,-0.352 -1.2,0.4414 -0.7,1.07475 -1.1,3.57495 -0.9,3.6449 -0.6,1.3936 -1.2,0.9684 -0.4,0.045 0.5,-0.05 1,0.7974 0.3,1.3231 -0.1,1.478 -0.4,1.422 -0.4,1.334 -0.2,1.397 0.2,1.383 0.9,1.005 1.8,0.287 1.7,-0.473 0.3,-0.346 0.3,-0.345"
       id="path4372"
       style="fill:none;stroke:#000000;stroke-width:0.5;stroke-linecap:butt;stroke-linejoin:miter;stroke-miterlimit:4;stroke-opacity:1;stroke-dasharray:none" />
    <path
       d="m 1697.5,0.29326 -0.1,1.21444 -0.2,1.2129 -0.3,1.9733 -0.3,1.9667 -0.1,1.2535 -0.1,1.2546 -0.4,1.6223 -0.3,1.633 -0.1,1.333 -0.3,1.281 -0.3,1.787 -0.4,1.783 -0.1,0.545 -0.2,0.04"
       id="path4382"
       style="fill:none;stroke:#000000;stroke-width:0.5;stroke-linecap:butt;stroke-linejoin:miter;stroke-miterlimit:4;stroke-opacity:1;stroke-dasharray:none" />
    <path
       d="m 1706,-1.4081 0.3,-0.2026 0.2,0.044 0.1,0.1327 -0.3,0.064 0.4,-0.3248 0.5,-0.138 0.7,0.042 0.6,0.2156 0.5,0.3824 0.4,0.54086 0.2,0.63319 0.1,0.65952 -0.3,1.44783 -0.6,1.3716 -0.5,1.3761 -0.2,1.4612 0.2,0.6386 0.4,0.6264 0.4,0.5169 0.4,0.3102 -0.5,0.9197 -0.5,0.7959 -0.4,0.836 0,1.039 0,1.512 0.1,1.51 0.1,1.509 0,1.512 -0.4,0.621 -0.5,0.526 -0.6,0.345 -0.7,0.08 -0.5,-0.218 -0.3,-0.414 0,-0.48 0.3,-0.417 0.1,-0.07 0.1,-0.06 0.1,-0.04 0.1,-0.02"
       id="path4384"
       style="fill:none;stroke:#000000;stroke-width:0.5;stroke-linecap:butt;stroke-linejoin:miter;stroke-miterlimit:4;stroke-opacity:1;stroke-dasharray:none" />
    <path
       d="m 1719.5,2.3726 0,-0.4743 0.2,0.1425 -0.3,-0.1321 0.3,-0.5556 0.5,-0.519 0.5,-0.47835 0.7,-0.22502 0.7,0.10741 0.9,0.39005 1,0.30214 0.7,0.29577 0.8,0.233 0.7,-0.1453 0.7,-0.35086 0.7,-0.39857 0.6,-0.51792 0.1,-0.19275 0,0.06148"
       id="path4386"
       style="fill:none;stroke:#000000;stroke-width:0.5;stroke-linecap:butt;stroke-linejoin:miter;stroke-miterlimit:4;stroke-opacity:1;stroke-dasharray:none" />
  </g>
</svg>
